<svg width="240" height="39" viewBox="0 0 240 39" fill="none" xmlns="http://www.w3.org/2000/svg">
<path d="M27.9674 0.878913C20.2424 0.874913 12.1824 2.61491 4.04745 4.87191C3.01445 5.07991 2.00645 5.75591 1.47345 6.59191C0.98345 7.37991 0.80545 8.17091 0.65245 8.99991C-0.13755 13.4279 -0.0415503 17.7759 0.12245 22.5939C0.15845 23.6969 0.32245 25.0039 0.83745 25.7989C1.37545 26.6019 2.29745 27.1119 3.39845 27.2789C4.80505 27.4852 6.21607 27.6603 7.63045 27.8039L7.31845 36.5019C7.27045 37.1939 7.60845 37.7689 8.02845 38.0999C8.40445 38.3859 8.82345 38.5129 9.25345 38.5449C10.1135 38.6099 11.1225 38.2419 11.6235 37.2879C13.8185 33.0639 15.1955 31.1989 17.9405 28.3929C25.0985 28.5689 31.3475 28.1709 38.4225 27.6479C40.9235 27.5829 42.6405 25.5379 43.0945 23.9049C44.4515 19.6729 44.6624 14.4489 44.8064 9.16791C44.8674 7.07491 44.1414 5.01991 42.8564 3.93391C41.6344 2.94291 40.1545 2.58391 38.7985 2.21591C35.0315 1.36291 31.2634 0.904913 27.9674 0.878913ZM38.2575 4.18891C39.6155 4.55791 40.8125 4.91291 41.5675 5.52591C42.8275 6.86491 42.7854 7.75591 42.7674 9.20091C42.6254 14.3229 42.3794 19.2939 41.2234 23.0609C40.7254 24.4659 39.8574 25.4659 38.2174 25.6169C31.0094 26.1499 24.7555 26.5619 17.5105 26.3559C17.3694 26.3514 17.2289 26.3759 17.0976 26.4278C16.9664 26.4798 16.8472 26.5581 16.7474 26.6579C13.7034 29.7319 12.1465 31.8679 9.82645 36.3339C9.77245 36.4359 9.65545 36.4979 9.51145 36.5089C9.41445 36.5039 9.37545 36.4289 9.36945 36.3609L9.68345 26.9289C9.70245 26.4199 9.28245 25.9339 8.77645 25.8789C7.08457 25.7173 5.3973 25.5106 3.71645 25.2589C2.99045 25.1479 2.72245 24.9489 2.52345 24.6529C2.17745 23.8279 2.18545 23.3179 2.15845 22.5249C1.99645 17.7499 1.91645 13.5769 2.64945 9.42491C2.71745 8.81091 2.94745 8.18291 3.19145 7.65791C3.59545 7.02591 4.21445 6.93291 4.83545 6.76091C12.7914 4.56391 20.5754 2.92091 27.9035 2.91591C31.4955 3.04591 35.2675 3.40591 38.2575 4.18891V4.18891ZM10.7785 12.2789C9.68245 13.5919 9.79145 15.3749 10.6384 16.5689C11.0804 17.1939 11.7704 17.6969 12.6104 17.8109C13.7014 17.9009 14.3935 17.4589 15.1405 16.9509C16.4935 15.7749 16.6305 13.7229 15.6014 12.2409C15.0774 11.4859 14.2395 11.0329 13.3835 11.0009C12.2115 11.0129 11.4155 11.5359 10.7785 12.2779V12.2789ZM22.6345 11.2069C21.5425 11.2419 20.6595 11.9979 20.1205 12.8139C19.5035 13.7469 19.1435 14.9149 19.6425 16.0599C20.6025 18.2629 23.9195 18.2359 25.2425 15.9969C25.8525 14.9649 25.6965 13.7919 25.2425 12.9409C24.7905 12.0909 24.1065 11.3979 23.1115 11.2389C22.9538 11.213 22.7941 11.2023 22.6345 11.2069V11.2069ZM32.2594 11.4139C31.9194 11.4059 31.5694 11.4379 31.2414 11.5249C29.9294 11.8749 28.8125 13.2289 28.9815 14.9619C29.0675 15.8339 29.4685 16.6839 30.1915 17.2699C30.9145 17.8549 31.9644 18.1169 33.0714 17.8899C34.3434 17.6299 35.1315 16.6049 35.3945 15.6149C35.6575 14.6249 35.5914 13.6159 34.9804 12.7979C34.6625 12.3752 34.2522 12.0307 33.7808 11.7908C33.3093 11.551 32.7893 11.422 32.2604 11.4139H32.2594ZM13.2944 13.0369C13.5394 13.0389 13.7324 13.1169 13.9314 13.4029C14.3764 14.0449 14.2525 15.0179 13.8035 15.4079C13.3565 15.7979 13.0774 15.8319 12.8814 15.8059C12.6854 15.7789 12.4864 15.6439 12.3084 15.3919C11.9684 14.9119 11.8684 14.1359 12.3154 13.5819C12.5534 13.2659 12.9905 13.0689 13.2955 13.0369H13.2944ZM22.7775 13.2599C22.8155 13.2659 23.2414 13.5129 23.4454 13.8959C23.6494 14.2789 23.6875 14.6349 23.4935 14.9619C22.9165 15.9379 21.6895 15.6739 21.5035 15.2489C21.4335 15.0869 21.4865 14.4359 21.8235 13.9289C22.1585 13.4199 22.5805 13.2289 22.7775 13.2589V13.2599ZM33.3414 14.0079C33.4034 14.0909 33.5545 14.6479 33.4375 15.0899C33.3195 15.5319 33.1275 15.8049 32.6575 15.9009C32.0555 16.0249 31.7175 15.9009 31.4645 15.6939C31.2105 15.4889 31.0395 15.1419 31.0025 14.7709C30.9125 13.8509 31.2425 13.6379 31.7665 13.4979C32.3765 13.3479 33.0664 13.6099 33.3414 14.0079V14.0079Z" fill="#FEFEFE"/>
<path d="M57.6113 4.99601C57.6273 4.73601 57.7223 4.50201 57.8983 4.29501C57.984 4.19353 58.0916 4.11288 58.2131 4.05917C58.3345 4.00546 58.4666 3.9801 58.5993 3.98501H65.4253C65.6553 3.98501 65.8923 4.08101 66.1373 4.27201C66.2521 4.35444 66.3455 4.46321 66.4095 4.58919C66.4735 4.71518 66.5064 4.85469 66.5053 4.99601V15.889H77.9263V4.99601C77.9263 4.72001 78.0223 4.48301 78.2133 4.28401C78.4053 4.08401 78.6533 3.98401 78.9603 3.98401H85.6943C86.0003 3.98401 86.2683 4.06101 86.4983 4.21401C86.7283 4.36801 86.8433 4.61301 86.8433 4.95001V37.1C86.8433 37.437 86.7433 37.69 86.5433 37.858C86.3453 38.027 86.0843 38.111 85.7633 38.111H78.9603C78.6543 38.111 78.4053 38.027 78.2133 37.858C78.0223 37.69 77.9263 37.438 77.9263 37.1V24.047H66.5053V37.1C66.5053 37.422 66.4013 37.67 66.1953 37.847C65.9883 38.023 65.7083 38.111 65.3553 38.111H58.5993C57.9563 38.111 57.6273 37.812 57.6113 37.215V4.99601ZM120.486 37.721C120.287 37.889 120.076 37.996 119.854 38.042C119.647 38.0867 119.435 38.1102 119.223 38.112H115.753C115.477 38.112 115.239 38.062 115.04 37.962C114.84 37.862 114.672 37.728 114.534 37.56C114.393 37.3855 114.277 37.1919 114.19 36.985C114.098 36.7688 114.021 36.5463 113.96 36.319L113.248 33.377C113.018 33.852 112.685 34.392 112.248 34.997C111.776 35.6391 111.215 36.2113 110.582 36.697C109.908 37.227 109.103 37.671 108.169 38.031C107.234 38.391 106.162 38.571 104.951 38.571C103.205 38.571 101.619 38.234 100.194 37.56C98.7992 36.9082 97.558 35.9682 96.5523 34.802C95.5493 33.638 94.7713 32.278 94.2203 30.722C93.6683 29.168 93.3923 27.509 93.3923 25.748V10.695C93.3923 10.113 93.5193 9.67301 93.7723 9.37401C94.0243 9.07501 94.4263 8.92601 94.9783 8.92601H100.286C100.946 8.92601 101.397 9.03601 101.642 9.25901C101.887 9.48101 102.01 9.91401 102.01 10.557V25.517C102.01 26.177 102.16 26.801 102.458 27.391C102.757 27.981 103.151 28.501 103.642 28.953C104.132 29.405 104.687 29.762 105.308 30.022C105.928 30.282 106.56 30.412 107.204 30.412C107.755 30.412 108.326 30.282 108.916 30.022C109.51 29.7587 110.06 29.4059 110.547 28.976C111.045 28.54 111.455 28.026 111.777 27.436C112.099 26.846 112.259 26.222 112.259 25.564V10.626C112.259 10.366 112.309 10.106 112.409 9.84501C112.509 9.58501 112.658 9.38501 112.857 9.24701C113.056 9.12501 113.244 9.04101 113.42 8.99501C113.596 8.94901 113.8 8.92501 114.029 8.92501H119.223C119.881 8.92501 120.356 9.08701 120.647 9.40801C120.938 9.73001 121.084 10.159 121.084 10.695V36.411C121.084 36.701 121.019 36.97 120.889 37.215C120.759 37.46 120.579 37.652 120.349 37.789L120.486 37.721V37.721ZM147.167 34.549C146.753 34.963 146.297 35.407 145.8 35.882C145.302 36.357 144.754 36.802 144.157 37.215C143.556 37.6306 142.909 37.974 142.227 38.238C141.516 38.5102 140.759 38.6465 139.997 38.64C137.914 38.64 135.995 38.25 134.24 37.468C132.53 36.7173 130.989 35.6266 129.713 34.262C128.449 32.906 127.461 31.309 126.749 29.47C126.036 27.632 125.68 25.656 125.68 23.541C125.68 21.411 126.036 19.431 126.749 17.601C127.461 15.771 128.449 14.177 129.713 12.821C130.988 11.4578 132.529 10.3707 134.24 9.62701C135.995 8.85301 137.914 8.46601 139.997 8.46601C140.84 8.46601 141.61 8.58901 142.307 8.83401C142.98 9.06703 143.621 9.3835 144.214 9.77601C144.789 10.159 145.317 10.592 145.8 11.074C146.282 11.557 146.738 12.028 147.167 12.488V1.98501C147.167 1.49501 147.317 1.08201 147.615 0.745014C147.914 0.407014 148.362 0.239014 148.96 0.239014H154.13C154.33 0.239014 154.54 0.281014 154.762 0.365014C154.984 0.450014 155.187 0.568014 155.372 0.722014C155.555 0.875014 155.704 1.05901 155.819 1.27301C155.934 1.48801 155.992 1.72501 155.992 1.98501V36.342C155.992 37.522 155.372 38.112 154.13 38.112H149.626C149.32 38.112 149.082 38.072 148.914 37.996C148.747 37.9211 148.601 37.8069 148.488 37.663C148.36 37.4944 148.256 37.309 148.178 37.112C148.07 36.8526 147.955 36.5958 147.834 36.342L147.167 34.549V34.549ZM133.953 23.541C133.946 24.5074 134.105 25.4679 134.424 26.38C134.738 27.26 135.186 28.023 135.769 28.666C136.358 29.3141 137.073 29.8342 137.871 30.194C138.691 30.57 139.599 30.757 140.595 30.757C141.575 30.757 142.498 30.581 143.364 30.229C144.205 29.8921 144.974 29.3964 145.627 28.769C146.277 28.1407 146.803 27.3966 147.179 26.575C147.569 25.732 147.788 24.828 147.834 23.863V23.541C147.838 22.5793 147.65 21.6266 147.282 20.738C146.926 19.8669 146.408 19.0715 145.754 18.394C145.099 17.7173 144.319 17.1749 143.456 16.797C142.555 16.402 141.58 16.2023 140.595 16.211C139.599 16.211 138.691 16.406 137.871 16.797C137.051 17.187 136.351 17.72 135.769 18.394C135.178 19.0839 134.721 19.8792 134.424 20.738C134.109 21.6386 133.95 22.5867 133.954 23.541H133.953ZM182.673 34.549C182.259 34.963 181.803 35.407 181.305 35.882C180.807 36.357 180.259 36.802 179.662 37.215C179.061 37.6306 178.414 37.974 177.732 38.238C177.021 38.5102 176.264 38.6465 175.502 38.64C173.419 38.64 171.5 38.25 169.746 37.468C168.035 36.7175 166.495 35.6267 165.218 34.262C163.955 32.906 162.966 31.309 162.254 29.47C161.542 27.632 161.185 25.656 161.185 23.541C161.185 21.411 161.542 19.431 162.254 17.601C162.966 15.771 163.954 14.177 165.218 12.821C166.493 11.4576 168.034 10.3705 169.746 9.62701C171.5 8.85301 173.419 8.46601 175.502 8.46601C176.345 8.46601 177.115 8.58901 177.812 8.83401C178.485 9.06703 179.126 9.3835 179.719 9.77601C180.294 10.159 180.822 10.592 181.305 11.074C181.788 11.557 182.243 12.028 182.672 12.488V1.98501C182.672 1.49501 182.822 1.08201 183.12 0.745014C183.42 0.407014 183.867 0.239014 184.465 0.239014H189.635C189.835 0.239014 190.045 0.281014 190.267 0.365014C190.49 0.450014 190.693 0.568014 190.877 0.722014C191.06 0.875014 191.21 1.05901 191.325 1.27301C191.439 1.48801 191.497 1.72501 191.497 1.98501V36.342C191.497 37.522 190.877 38.112 189.635 38.112H185.131C184.825 38.112 184.587 38.072 184.419 37.996C184.253 37.921 184.107 37.8067 183.994 37.663C183.866 37.4944 183.762 37.309 183.684 37.112C183.576 36.8526 183.461 36.5958 183.339 36.342L182.672 34.549H182.673ZM169.458 23.541C169.451 24.5074 169.61 25.4679 169.929 26.38C170.244 27.26 170.692 28.023 171.274 28.666C171.863 29.3142 172.579 29.8343 173.377 30.194C174.197 30.57 175.104 30.757 176.1 30.757C177.08 30.757 178.003 30.581 178.869 30.229C179.711 29.8922 180.479 29.3965 181.133 28.769C181.782 28.1405 182.308 27.3964 182.683 26.575C183.074 25.732 183.293 24.828 183.339 23.863V23.541C183.343 22.5793 183.155 21.6266 182.787 20.738C182.431 19.8669 181.913 19.0715 181.259 18.394C180.604 17.7173 179.824 17.1749 178.961 16.797C178.06 16.402 177.085 16.2023 176.1 16.211C175.104 16.211 174.196 16.406 173.377 16.797C172.557 17.187 171.856 17.72 171.274 18.394C170.683 19.0839 170.226 19.8792 169.929 20.738C169.614 21.6386 169.455 22.5867 169.459 23.541H169.458ZM197.611 2.00801C197.611 1.51801 197.733 1.10501 197.978 0.768014C198.224 0.430014 198.645 0.262014 199.242 0.262014H204.872C205.026 0.262014 205.187 0.304014 205.355 0.388014C205.532 0.478601 205.691 0.599426 205.826 0.745014C205.972 0.898014 206.094 1.08201 206.194 1.29601C206.294 1.51101 206.344 1.74801 206.344 2.00801V36.342C206.344 36.924 206.179 37.364 205.849 37.663C205.52 37.962 205.095 38.111 204.574 38.111H199.242C198.645 38.111 198.224 37.961 197.978 37.663C197.733 37.364 197.611 36.923 197.611 36.342V2.00801ZM236.311 34.618C234.979 35.8489 233.438 36.8332 231.761 37.525C230.063 38.2248 228.243 38.5803 226.406 38.571C224.306 38.571 222.323 38.188 220.454 37.421C218.628 36.6827 216.958 35.6027 215.536 34.239C214.12 32.8728 212.98 31.2456 212.181 29.447C211.353 27.609 210.94 25.61 210.94 23.449C210.94 22.101 211.104 20.795 211.434 19.531C211.753 18.2943 212.224 17.1019 212.836 15.981C213.442 14.8778 214.183 13.8548 215.042 12.936C215.9 12.0156 216.878 11.2154 217.949 10.557C219.04 9.89017 220.215 9.37224 221.442 9.01701C222.734 8.64455 224.073 8.459 225.417 8.46601C226.689 8.46601 227.922 8.63501 229.117 8.97201C230.312 9.30901 231.435 9.78401 232.484 10.396C233.534 11.009 234.494 11.745 235.368 12.603C236.23 13.4467 236.986 14.392 237.62 15.418C238.249 16.4366 238.74 17.5338 239.08 18.681C239.424 19.838 239.597 21.029 239.597 22.254C239.597 23.051 239.585 23.702 239.562 24.208C239.539 24.713 239.42 25.116 239.206 25.414C238.991 25.714 238.636 25.92 238.137 26.034C237.639 26.15 236.907 26.207 235.943 26.207H219.397C219.55 27.187 219.86 28.007 220.327 28.667C220.76 29.2917 221.31 29.826 221.947 30.24C222.56 30.631 223.211 30.91 223.901 31.08C224.54 31.2418 225.196 31.3264 225.854 31.332C226.406 31.332 226.972 31.274 227.554 31.16C228.128 31.0474 228.693 30.8937 229.244 30.7C229.76 30.5207 230.26 30.2976 230.737 30.033C231.189 29.781 231.553 29.516 231.829 29.241C232.074 29.041 232.285 28.892 232.461 28.792C232.637 28.692 232.825 28.643 233.024 28.643C233.224 28.643 233.426 28.713 233.634 28.85C233.886 29.0261 234.121 29.2261 234.334 29.447L236.77 32.205C236.938 32.405 237.046 32.585 237.092 32.745C237.138 32.906 237.161 33.071 237.161 33.239C237.161 33.546 237.076 33.81 236.908 34.032C236.738 34.2553 236.537 34.4527 236.31 34.618H236.311ZM225.257 15.475C224.659 15.475 224.081 15.594 223.522 15.831C222.955 16.0732 222.425 16.3944 221.947 16.785C221.457 17.183 221.017 17.635 220.626 18.141C220.253 18.6181 219.933 19.1345 219.672 19.681H231.415C231.107 19.1049 230.758 18.5517 230.37 18.026C230.002 17.5272 229.569 17.0791 229.083 16.693C228.587 16.3024 228.027 15.9994 227.428 15.797C226.808 15.582 226.084 15.475 225.257 15.475Z" fill="#FEFEFE"/>
</svg>
